<svg xmlns="http://www.w3.org/2000/svg" xmlns:xlink="http://www.w3.org/1999/xlink" version="1.1" x="0px" y="0px" viewBox="0 0 90 112.5" enable-background="new 0 0 90 90" xml:space="preserve"><path fill="#000000" d="M87.943,47.286c-0.528-18.759-9.804-31.45-20.761-37.72c-7.14-4.085-15.208-5.888-22.532-5.888  c-18.57,0-40.277,16.785-40.605,44.925C3.957,56.188,4.83,61.721,8.437,67.413C16.673,80.409,32.32,87.95,45.231,87.647  c12.983-0.304,26.039-7.333,33.605-15.841C85.687,64.104,88.199,56.404,87.943,47.286z M46.102,84.478  C29.134,84.884,6.989,70.189,7.257,47.008c0.3-26.202,21.339-40.71,38.312-40.71c16.973,0,38.314,10.786,39.114,39.628  C85.176,63.793,68.72,83.943,46.102,84.478z"/><g><path fill="#000000" d="M34.354,36.57c0,0-3.666,5.231,3.844,5.732C38.198,42.302,38.025,37.249,34.354,36.57z"/><path fill="#000000" d="M46.453,18.028c-8.393-2.229-0.537,9.126-0.537,9.126S54.857,20.272,46.453,18.028z"/><path fill="#000000" d="M59.273,38.637c-4.994-5.211-5.912,3.729-5.912,3.729S64.281,43.854,59.273,38.637z"/><path fill="#000000" d="M28.678,35.838c0,0,5.308-8.073-5.511-6.438C23.167,29.399,18.376,34.878,28.678,35.838z"/><path fill="#000000" d="M37.698,30.86c2.928-9.714-6.241-7.814-6.45-7.091C30.425,26.609,37.529,31.412,37.698,30.86z"/><path fill="#000000" d="M71.09,31.774c-5.872-4.702-8.81,3.376-8.81,3.376S76.962,36.479,71.09,31.774z"/><path fill="#000000" d="M30.58,44.565c-9.822-6.995-14.235,1.506-14.235,1.506C20.542,54.485,30.58,44.565,30.58,44.565z"/><path fill="#000000" d="M43.487,46.483c0,0-10.747,0.555-7.272,5.133C36.215,51.616,42.459,53.451,43.487,46.483z"/><path fill="#000000" d="M46.794,33.136c-8.123-3.736,0,7.958,0,7.958C53.397,34.185,46.794,33.136,46.794,33.136z"/><path fill="#000000" d="M47.202,56.684c0.842-1.536-1.286-3.38-1.286-3.38S46.366,58.211,47.202,56.684z"/><path fill="#000000" d="M64.281,45.513c5.028,7.881,10.488,0.099,10.488,0.099C72.735,38.479,64.281,45.513,64.281,45.513z"/><path fill="#000000" d="M57.905,50.183c-0.938-4.909-9.292-1.485-9.292-1.485C54.493,55.715,57.905,50.183,57.905,50.183z"/><path fill="#000000" d="M45.197,73.871c6.558-1.03,3.105-9.632,3.105-9.632C35.632,72.736,45.197,73.871,45.197,73.871z"/><path fill="#000000" d="M19.933,59.292c7.53,5.749,10.269-6.316,10.269-6.316C18.34,51.827,19.933,59.292,19.933,59.292z"/><path fill="#000000" d="M56.18,56.39c16.179,10.132,14.028,2.217,14.028,2.217C69.539,49.646,56.18,56.39,56.18,56.39z"/><path fill="#000000" d="M37.115,59.096c-11.963,2.347-2.056,9.962-2.056,9.962S48.466,56.874,37.115,59.096z"/><path fill="#000000" d="M60.415,22.173c-5.02-6.041-6.071,7.727-6.071,7.727S65.444,28.199,60.415,22.173z"/><path fill="#000000" d="M80.173,45.098c-5.533-4.343-5.821-17.083-5.821-17.083C65.91,24.54,61.835,16.143,61.835,16.143   c-5.532,1.449-16.01-4.054-16.01-4.054c-10.77,4.632-17.757,4.632-17.757,4.632c-5.53,9.846-12.225,13.321-12.225,13.321   c1.747,4.632-4.657,17.374-4.657,17.374c4.075,0.868,4.949,15.346,4.949,15.346c2.036-1.449,12.515,11.872,12.515,11.872   c2.911-1.738,17.174,3.765,17.174,3.765c1.455-2.029,17.756-4.635,17.756-4.635c0-2.603,11.643-11.581,11.643-11.581   C73.187,57.549,80.173,45.098,80.173,45.098z M76.482,45.408c0,0-7.282,11.326-14.004-0.137   C62.479,45.271,73.774,35.031,76.482,45.408z M72.059,30.71c7.422,7.148-11.146,5.122-11.146,5.122S64.627,23.557,72.059,30.71z    M61.056,21.264c6.14,8.636-7.431,11.061-7.431,11.061S54.911,12.636,61.056,21.264z M60.2,37.453   c6.995,8.898-8.291,6.333-8.291,6.333S53.203,28.544,60.2,37.453z M46.631,31.784c0,0,9.285,1.483,0,11.192   C46.631,42.976,35.195,26.525,46.631,31.784z M45.197,44.999c-1.423,10.256-10.146,7.553-10.146,7.553   C30.202,45.812,45.197,44.999,45.197,44.999z M45.771,52.019c0,0,3.711,3.507,1.714,5.934   C45.484,60.381,45.771,52.019,45.771,52.019z M47.339,48.105c0,0,10.147-5.261,11.293,2.286   C58.632,50.392,54.489,58.889,47.339,48.105z M46.344,16.54c11.143,3.24-0.715,13.22-0.715,13.22S35.195,13.305,46.344,16.54z    M33.48,34.621c6.149,1.072,6.433,9.165,6.433,9.165C27.346,42.976,33.48,34.621,33.48,34.621z M31.49,20.051   c11.997-0.408,7.145,12.682,7.145,12.682C24.207,27.063,31.49,20.051,31.49,20.051z M21.628,28.544   c14.855-2.281,7.573,9.039,7.573,9.039C15.062,36.235,21.628,28.544,21.628,28.544z M14.63,46.08c0,0,5.711-12.133,18.428-2.155   C33.058,43.925,20.055,58.082,14.63,46.08z M19.196,60.109c0,0-1.998-10.522,12.862-8.903   C32.058,51.206,28.633,68.192,19.196,60.109z M34.917,71.57c0,0-13.079-11.551,2.717-15.106   C52.627,53.096,34.917,71.57,34.917,71.57z M45.342,75.212c0,0-12.284-1.62,3.997-13.896   C49.339,61.316,53.771,73.729,45.342,75.212z M60.342,70.358c0,0-7.571,1.341-9.433-10.791   C50.909,59.567,74.914,63.747,60.342,70.358z M53.921,55.525c0,0,16.852-10.254,17.705,3.363   C71.626,58.889,74.343,70.891,53.921,55.525z"/><path fill="#000000" d="M52.727,61.765c1.394,7.896,7.08,7.02,7.08,7.02C70.735,64.487,52.727,61.765,52.727,61.765z"/></g><text x="0" y="105" fill="#000000" font-size="5px" font-weight="bold" font-family="'Helvetica Neue', Helvetica, Arial-Unicode, Arial, Sans-serif">Created by Jake Heller</text><text x="0" y="110" fill="#000000" font-size="5px" font-weight="bold" font-family="'Helvetica Neue', Helvetica, Arial-Unicode, Arial, Sans-serif">from the Noun Project</text></svg>