<svg xmlns="http://www.w3.org/2000/svg" xmlns:xlink="http://www.w3.org/1999/xlink" version="1.1" x="0px" y="0px" viewBox="0 0 100 125" enable-background="new 0 0 100 100" xml:space="preserve"><g><path fill="#000000" d="M34.103,8.672c3.876-1.113,7.757-2.214,11.643-3.294c-0.087,0.315-0.278,0.586-0.415,0.881   C36.168,23.615,27.009,40.974,17.847,58.33c-0.135,0.213-0.244,0.438-0.28,0.69c-2.649,0.717-5.273,1.512-7.923,2.222   c-0.239,0.118-0.48,0.235-0.755,0.225c-0.756,0.25-1.538,0.41-2.296,0.653c-0.204,0.114-0.442,0.109-0.668,0.09   c-0.002-0.12,0.027-0.231,0.09-0.333C15.384,44.146,24.736,26.404,34.103,8.672z"/><g><path fill="#000000" d="M46.756,5.491c0.064,0.007,0.193,0.018,0.258,0.023c15.391,15.386,30.772,30.78,46.166,46.163    c0.088,0.462-0.316,0.804-0.496,1.188c-0.215,0.48-0.488,0.939-0.857,1.318c-3.199,5.422-7.326,10.348-12.379,14.132    c-3.574,2.69-7.594,4.803-11.863,6.144c-0.227,0.089-0.42,0.248-0.654,0.314c-0.248,0.083-0.541,0.061-0.719,0.281    c-0.389-0.012-0.752,0.102-1.133,0.152c0.016,0.241-0.227,0.237-0.371,0.121c-0.143,0.059-0.291,0.053-0.437,0.029    c-6.236,1.369-12.831,1.177-19.029-0.404c-8.388-2.09-16.057-6.519-22.595-12.107c-1.421-1.223-2.803-2.492-4.129-3.817    c0.467-1.008,1.039-1.97,1.538-2.964C28.96,39.209,37.848,22.345,46.756,5.491z M48.4,14.556    c-0.167,0.206-0.216,0.476-0.293,0.723c-0.292,1.108-0.482,2.256-0.437,3.405c0.002,0.366,0.404,0.502,0.705,0.546    c0.503,0.033,1.023-0.106,1.432-0.407c0.234-0.168,0.362-0.474,0.286-0.756c-0.226-1.087-0.629-2.139-1.156-3.114    C48.817,14.776,48.666,14.433,48.4,14.556z M53.535,21c-0.273,0.469-0.331,1.023-0.457,1.544    c-0.154,0.812-0.281,1.641-0.252,2.471c-0.01,0.31,0.274,0.532,0.561,0.569c0.626,0.083,1.335-0.057,1.768-0.546    c0.244-0.337,0.076-0.768-0.008-1.13c-0.286-0.957-0.625-1.915-1.162-2.762C53.908,20.985,53.686,20.819,53.535,21z     M43.549,28.604c-0.277,1.071-0.443,2.181-0.438,3.289c0.011,0.584,0.749,0.673,1.195,0.593c0.535-0.095,1.298-0.373,1.261-1.033    c-0.174-1.057-0.587-2.064-1.055-3.022c-0.164-0.233-0.27-0.637-0.611-0.633C43.694,28.019,43.626,28.322,43.549,28.604z     M59.839,33.201c-0.03,0.027-0.09,0.084-0.119,0.111c-0.446,1.066-0.567,2.232-0.681,3.372c0.016,0.363-0.113,0.842,0.253,1.078    c0.477,0.26,1.063,0.133,1.544-0.058c0.357-0.146,0.744-0.476,0.646-0.908c-0.145-0.834-0.448-1.631-0.779-2.406    c-0.207-0.406-0.368-0.854-0.697-1.18C59.965,33.208,59.881,33.203,59.839,33.201z M49.263,33.754    c-0.34,0.412-0.386,0.983-0.516,1.486c-0.166,0.872-0.312,1.76-0.286,2.649c-0.01,0.354,0.354,0.561,0.667,0.575    c0.588,0.053,1.244-0.108,1.651-0.559c0.23-0.265,0.117-0.638,0.05-0.943c-0.254-0.951-0.596-1.887-1.08-2.747    C49.617,34.041,49.519,33.754,49.263,33.754z M68.26,36.378c-0.156,0.175-0.2,0.417-0.271,0.634    c-0.309,1.135-0.507,2.313-0.461,3.492c0.001,0.366,0.402,0.501,0.703,0.545c0.574,0.036,1.205-0.136,1.602-0.573    c0.262-0.335,0.07-0.766-0.005-1.13c-0.274-0.937-0.614-1.865-1.117-2.706C68.617,36.496,68.455,36.26,68.26,36.378z     M41.733,39.082c-0.203,0.253-0.263,0.584-0.35,0.888c-0.211,0.891-0.373,1.8-0.402,2.717c0.001,0.335-0.077,0.811,0.318,0.963    c0.646,0.23,1.448,0.069,1.942-0.415c0.233-0.208,0.2-0.55,0.145-0.825c-0.241-0.985-0.604-1.941-1.076-2.838    C42.178,39.374,42.028,38.972,41.733,39.082z M55.933,40.53c-0.351,0.637-0.433,1.378-0.563,2.083    c-0.089,0.673-0.213,1.354-0.15,2.036c0.006,0.265,0.265,0.434,0.499,0.49c0.603,0.1,1.273-0.035,1.733-0.452    c0.231-0.188,0.24-0.514,0.178-0.781c-0.211-0.949-0.561-1.865-0.99-2.735C56.467,40.932,56.309,40.33,55.933,40.53z     M63.328,43.541c-0.199,0.219-0.256,0.526-0.338,0.802c-0.248,0.996-0.416,2.017-0.445,3.044c-0.029,0.309,0.104,0.68,0.433,0.766    c0.589,0.173,1.247,0.002,1.739-0.345c0.357-0.242,0.32-0.713,0.221-1.078c-0.285-1.021-0.648-2.032-1.193-2.946    C63.659,43.653,63.504,43.438,63.328,43.541z M72.518,46.313c-0.145,0.209-0.205,0.464-0.283,0.704    c-0.256,0.975-0.402,1.978-0.451,2.985c0.007,0.252-0.038,0.558,0.166,0.749c0.199,0.187,0.488,0.204,0.746,0.216    c0.55-0.028,1.164-0.201,1.486-0.681c0.14-0.465-0.059-0.943-0.178-1.39c-0.281-0.831-0.585-1.669-1.062-2.412    C72.863,46.345,72.67,46.147,72.518,46.313z M34.317,47.818c-0.253,0.363-0.323,0.816-0.428,1.237    c-0.181,0.952-0.373,1.917-0.317,2.892c-0.005,0.222,0.181,0.38,0.361,0.475c0.502,0.173,1.051,0.048,1.52-0.163    c0.355-0.158,0.676-0.534,0.555-0.944c-0.186-0.866-0.493-1.703-0.858-2.509c-0.184-0.35-0.328-0.762-0.654-1.002    C34.45,47.806,34.362,47.814,34.317,47.818z M44.778,47.951c-0.215,0.167-0.286,0.447-0.368,0.695    c-0.264,1.049-0.447,2.125-0.468,3.208c0.007,0.241-0.001,0.555,0.251,0.684c0.368,0.197,0.815,0.148,1.208,0.069    c0.403-0.112,0.863-0.331,0.99-0.765c0.039-0.346-0.078-0.682-0.169-1.008c-0.262-0.851-0.574-1.694-1.021-2.467    C45.088,48.206,44.995,47.981,44.778,47.951z M52.657,48.925c-0.243,0.333-0.3,0.765-0.407,1.156    c-0.219,0.972-0.371,1.971-0.324,2.969c0,0.184,0.124,0.356,0.294,0.425c0.576,0.263,1.266,0.095,1.778-0.239    c0.269-0.163,0.436-0.492,0.35-0.804c-0.227-1.087-0.63-2.137-1.156-3.113C53.072,49.145,52.92,48.798,52.657,48.925z     M80.587,51.543c-0.282,0.415-0.341,0.939-0.464,1.417c-0.184,0.89-0.311,1.799-0.268,2.71c0.002,0.365,0.404,0.502,0.705,0.546    c0.503,0.032,1.025-0.106,1.432-0.407c0.236-0.168,0.362-0.474,0.285-0.756c-0.223-1.088-0.63-2.138-1.156-3.114    C81.002,51.762,80.852,51.418,80.587,51.543z M60.934,52.512c-0.134,0.109-0.178,0.285-0.238,0.438    c-0.338,1.059-0.479,2.163-0.559,3.267c-0.007,0.23-0.016,0.477,0.085,0.692c0.264,0.32,0.733,0.347,1.115,0.285    c0.403-0.079,0.835-0.212,1.112-0.531c0.227-0.269,0.137-0.646,0.065-0.956c-0.257-0.948-0.589-1.886-1.073-2.743    C61.31,52.791,61.203,52.455,60.934,52.512z M38.474,56.244c-0.224,0.342-0.297,0.755-0.4,1.146    c-0.212,1.009-0.404,2.042-0.321,3.077c0.048,0.316,0.411,0.424,0.683,0.461c0.577,0.023,1.226-0.125,1.62-0.577    c0.244-0.314,0.067-0.723,0.004-1.067c-0.254-0.917-0.599-1.816-1.065-2.647C38.877,56.455,38.744,56.148,38.474,56.244z     M47.726,56.872c-0.191,0.176-0.26,0.435-0.334,0.673c-0.259,0.958-0.413,1.943-0.48,2.932c0,0.296-0.057,0.634,0.126,0.891    c0.296,0.267,0.732,0.266,1.105,0.208c0.452-0.084,0.948-0.264,1.181-0.691c0.106-0.278-0.002-0.577-0.064-0.852    c-0.267-0.95-0.599-1.89-1.095-2.748C48.056,57.12,47.941,56.907,47.726,56.872z M28.558,57.568    c-0.255,0.424-0.338,0.925-0.453,1.401c-0.169,0.952-0.366,1.926-0.229,2.896c0.156,0.31,0.538,0.368,0.851,0.366    c0.508-0.025,1.057-0.172,1.403-0.57c0.258-0.274,0.118-0.68,0.05-1.002c-0.258-0.947-0.606-1.878-1.089-2.734    C28.968,57.752,28.822,57.4,28.558,57.568z M70.758,58.401c-0.225,0.312-0.293,0.701-0.392,1.064    c-0.239,1.029-0.426,2.087-0.349,3.147c0.079,0.412,0.576,0.502,0.929,0.479c0.495-0.067,1.054-0.17,1.378-0.592    c0.194-0.238,0.117-0.569,0.061-0.843c-0.266-1.005-0.627-1.991-1.142-2.896C71.135,58.598,71.001,58.323,70.758,58.401z     M54.293,63.762c-0.168,0.204-0.217,0.476-0.295,0.723c-0.292,1.108-0.482,2.256-0.436,3.405c-0.004,0.328,0.338,0.475,0.61,0.53    c0.534,0.077,1.093-0.074,1.526-0.392c0.233-0.169,0.361-0.474,0.285-0.758c-0.225-1.086-0.63-2.137-1.158-3.112    C54.709,63.982,54.557,63.636,54.293,63.762z M63.785,64.199c-0.281,0.416-0.341,0.938-0.464,1.417    c-0.183,0.89-0.312,1.799-0.268,2.709c-0.005,0.329,0.337,0.476,0.611,0.531c0.532,0.078,1.092-0.074,1.526-0.392    c0.234-0.17,0.361-0.474,0.285-0.758c-0.217-1.062-0.615-2.085-1.117-3.044C64.227,64.471,64.08,64.074,63.785,64.199z     M43.601,65.836c-0.243,0.334-0.292,0.768-0.405,1.158c-0.221,0.971-0.371,1.969-0.326,2.968c-0.004,0.329,0.338,0.476,0.611,0.53    c0.532,0.079,1.092-0.073,1.525-0.392c0.236-0.168,0.362-0.473,0.286-0.756c-0.224-1.088-0.63-2.137-1.157-3.113    C44.017,66.055,43.865,65.711,43.601,65.836z"/></g><path fill="#000000" d="M94.428,52.963c0.066,0.002,0.197,0.007,0.264,0.009c1.078,1.073,2.15,2.155,3.23,3.227   c0.18,0.148,0.002,0.369-0.066,0.526c-1.85,3.508-4.047,6.848-6.578,9.895c-0.156,0.307-0.467,0.483-0.654,0.766   c-0.232,0.41-0.676,0.645-0.893,1.066c-0.914,0.94-1.854,1.856-2.777,2.788c-0.375,0.354-0.699,0.767-1.143,1.035   c-0.529,0.574-1.186,0.996-1.748,1.528c-1.906,1.472-3.865,2.895-5.982,4.053c-0.504,0.358-1.111,0.535-1.615,0.895   c-0.464,0.298-1.01,0.419-1.481,0.699c-1.463,0.697-2.991,1.26-4.514,1.808c-0.646,0.114-1.23,0.476-1.894,0.504   c-0.004,0.288-0.286,0.182-0.455,0.108c0.013,0.349-0.433,0.119-0.646,0.201c-0.51,0.184-1.035,0.191-1.561,0.312   c-5.006,1.071-10.191,1.272-15.263,0.589c-4.82-0.614-9.526-2.001-13.976-3.939c-7.609-3.354-14.464-8.283-20.378-14.101   c-0.195-0.206-0.476-0.372-0.582-0.64c0.66-1.276,1.335-2.546,2.013-3.812c0.042,0.002,0.124,0.005,0.166,0.006   c5.977,5.936,12.956,10.971,20.792,14.14c4.31,1.75,8.867,2.903,13.502,3.318c1.267,0.139,2.543,0.091,3.814,0.107   c0.613-0.014,1.229,0.019,1.839-0.022c0.575-0.204,1.21,0.037,1.784-0.181c0.332-0.046,0.686,0.046,1.006-0.087   c0.268-0.087,0.555,0.015,0.83-0.022c4.033-0.536,7.985-1.684,11.666-3.421c6.086-2.841,11.361-7.254,15.541-12.485   C90.863,59.067,92.811,56.101,94.428,52.963z"/><path fill="#000000" d="M15.202,60.932c0.521-0.08,0.997-0.356,1.532-0.349l0.02,0.098c-0.538,1.006-1.067,2.019-1.602,3.027   c-0.155,0.32-0.379,0.613-0.438,0.974c-0.358,0.024-0.68,0.195-1.029,0.261c-3.062,0.863-6.124,1.73-9.186,2.597   c-0.498,0.122-0.979,0.343-1.5,0.348c0.706-1.325,1.389-2.663,2.112-3.978c0.612-0.189,1.229-0.364,1.853-0.514   c-0.001-0.043-0.005-0.129-0.006-0.171c0.208,0.013,0.403-0.056,0.597-0.124C10.104,62.374,12.658,61.672,15.202,60.932z"/><path fill="#000000" d="M14.917,65.641c0.188-0.063,0.432-0.042,0.556,0.129c1.659,1.766,3.481,3.36,5.337,4.911   c5.813,4.793,12.372,8.759,19.508,11.233c3.524,1.201,7.179,2.077,10.878,2.451c0.405,0.115,0.835,0.013,1.236,0.149   c0.57,0.062,1.151-0.021,1.719,0.085c0.723,0.077,1.453,0.03,2.179,0.052c0.7-0.037,1.415,0.057,2.104-0.109   c0.545-0.037,1.104,0.051,1.637-0.11c1.422-0.023,2.812-0.326,4.221-0.497c-0.003,0.051-0.01,0.151-0.016,0.203   c-2.189,0.608-4.377,1.229-6.562,1.851c-2.751,0.813-5.564,1.455-8.42,1.734c-0.483,0.114-0.99,0.025-1.471,0.16   c-0.621,0.013-1.243,0.027-1.859,0.108c-0.983,0.013-1.968,0.01-2.951,0.002c-0.707-0.147-1.437-0.037-2.146-0.152   c-6.529-0.507-12.919-2.434-18.784-5.33c-6.832-3.372-12.98-8.029-18.38-13.381c-0.126-0.096-0.074-0.29,0.075-0.324   C7.488,67.741,11.21,66.712,14.917,65.641z"/></g><text x="0" y="115" fill="#000000" font-size="5px" font-weight="bold" font-family="'Helvetica Neue', Helvetica, Arial-Unicode, Arial, Sans-serif">Created by misirlou</text><text x="0" y="120" fill="#000000" font-size="5px" font-weight="bold" font-family="'Helvetica Neue', Helvetica, Arial-Unicode, Arial, Sans-serif">from the Noun Project</text></svg>